<svg width="16" height="16" viewBox="0 0 16 16" fill="none" xmlns="http://www.w3.org/2000/svg">
<path fill-rule="evenodd" clip-rule="evenodd" d="M8.48327 10.13C9.01575 9.82329 9.48092 9.41311 9.85114 8.92382C9.73182 8.73897 9.64692 8.53421 9.60051 8.31937L9.58307 8.23889C9.53307 8.00914 9.41529 7.79951 9.24485 7.6369C9.0744 7.47429 8.85907 7.36612 8.62648 7.32626C6.72433 6.99706 6.72433 4.27745 8.62648 3.94733C8.85114 3.90881 9.05986 3.80653 9.22759 3.65275C9.39531 3.49898 9.51492 3.30025 9.57206 3.08043C9.12476 2.59491 8.5774 2.21144 7.96746 1.95628C7.35751 1.70112 6.69941 1.58031 6.03823 1.60211C5.37704 1.62392 4.72841 1.78783 4.13674 2.08262C3.54508 2.37741 3.02438 2.79611 2.61031 3.31003C2.19624 3.82396 1.89858 4.42097 1.73773 5.06017C1.57688 5.69937 1.55663 6.36564 1.67838 7.01336C1.80012 7.66108 2.06098 8.27493 2.44309 8.81286C2.8252 9.3508 3.31952 9.8001 3.8922 10.13V11.199C3.8922 11.4415 3.98892 11.6741 4.16109 11.8456C4.33325 12.0171 4.56676 12.1135 4.81023 12.1135H7.56432C7.8078 12.1135 8.0413 12.0171 8.21347 11.8456C8.38563 11.6741 8.48235 11.4415 8.48235 11.199L8.48327 10.13ZM3.89312 13.7138C3.89312 13.5319 3.96566 13.3574 4.09478 13.2288C4.22391 13.1002 4.39904 13.0279 4.58164 13.0279H7.79475C7.97736 13.0279 8.15248 13.1002 8.28161 13.2288C8.41073 13.3574 8.48327 13.5319 8.48327 13.7138C8.48327 13.8957 8.41073 14.0701 8.28161 14.1987C8.15248 14.3274 7.97736 14.3996 7.79475 14.3996H4.58164C4.39904 14.3996 4.22391 14.3274 4.09478 14.1987C3.96566 14.0701 3.89312 13.8957 3.89312 13.7138ZM10.5764 3.1673C10.7444 2.40281 11.8368 2.39824 12.0113 3.1609L12.0195 3.19748L12.036 3.2688C12.1351 3.68652 12.355 4.06612 12.6685 4.36063C12.9819 4.65515 13.3752 4.85164 13.7996 4.92581C14.6001 5.0648 14.6001 6.20971 13.7996 6.34871C13.3727 6.4232 12.9774 6.62143 12.663 6.9186C12.3487 7.21578 12.1293 7.59869 12.0324 8.01942L12.0113 8.1127C11.8368 8.87627 10.7435 8.8717 10.5745 8.1063L10.5571 8.02674C10.4646 7.60438 10.2478 7.21905 9.93456 6.91987C9.62129 6.62069 9.22568 6.42121 8.79816 6.34688C7.99855 6.20879 7.99855 5.06572 8.79816 4.92672C9.22418 4.85292 9.61864 4.65486 9.9316 4.35761C10.2446 4.06036 10.4619 3.6773 10.5562 3.25692L10.57 3.19748L10.5764 3.1673Z" fill="currentColor"/>
</svg>
