<svg width="16" height="16" viewBox="0 0 16 16" fill="none" xmlns="http://www.w3.org/2000/svg">
<path d="M7.79986 1.86995C7.92749 1.81418 8.0726 1.81418 8.20023 1.86995C10.6794 2.95316 13.0291 4.27734 15.2197 5.81279C15.3782 5.92391 15.4584 6.11656 15.4254 6.30732C15.3925 6.49809 15.2523 6.6527 15.0657 6.70421C14.6091 6.83024 14.1564 6.96599 13.7079 7.11065C11.8872 7.69785 10.1345 8.43667 8.46477 9.31228L8.46258 9.31342C8.38688 9.35312 8.31135 9.39311 8.23598 9.43338C8.08875 9.51205 7.91196 9.51205 7.76472 9.43338C7.68864 9.39273 7.61238 9.35236 7.53594 9.31228C6.7103 8.87932 5.86439 8.4798 5 8.11552V7.96639C5 7.87882 5.04495 7.80112 5.11449 7.75899C6.1179 7.15109 7.15292 6.59019 8.21649 6.07933C8.4654 5.95977 8.57026 5.66106 8.4507 5.41214C8.33114 5.16322 8.03243 5.05836 7.78351 5.17792C6.69068 5.70284 5.62724 6.27915 4.59633 6.9037C4.29408 7.08682 4.09088 7.38652 4.02405 7.72227C3.4541 7.50303 2.87666 7.29882 2.29219 7.11034C1.84364 6.96568 1.39096 6.83023 0.934363 6.7042C0.74775 6.65269 0.60764 6.49808 0.574693 6.30732C0.541746 6.11655 0.621883 5.9239 0.780409 5.81279C2.97097 4.27733 5.32065 2.95316 7.79986 1.86995Z" fill="currentColor"/>
<path d="M8.70724 10.3154C10.3332 9.44663 12.0414 8.7122 13.8172 8.12682C13.9067 9.07003 13.9638 10.0226 13.9875 10.9834C13.9926 11.1896 13.8706 11.3777 13.6803 11.4571C11.7795 12.2507 9.97158 13.2224 8.27729 14.3515C8.10938 14.4634 7.89066 14.4634 7.72274 14.3515C6.02845 13.2224 4.22049 12.2507 2.31973 11.4571C2.12944 11.3777 2.00744 11.1896 2.01252 10.9834C2.03619 10.0225 2.09334 9.06988 2.18285 8.1266C2.79685 8.32899 3.40277 8.54919 4 8.7866V9.63354C3.7011 9.80644 3.5 10.1296 3.5 10.4998C3.5 10.83 3.66005 11.1228 3.90681 11.3049C3.84714 11.5587 3.75882 11.807 3.64185 12.0447C3.94364 12.1872 4.24286 12.3342 4.5394 12.4857C4.70829 12.1422 4.83075 11.7817 4.90676 11.4136C5.25633 11.2577 5.5 10.9072 5.5 10.4998C5.5 10.1296 5.2989 9.80644 5 9.63354V9.20369C5.78093 9.5449 6.5459 9.91594 7.29346 10.3154C7.73517 10.5514 8.26553 10.5514 8.70724 10.3154Z" fill="currentColor"/>
<path d="M2.97482 12.9746C3.25424 12.6952 3.47668 12.3805 3.64185 12.0447C3.94364 12.1872 4.24286 12.3342 4.5394 12.4857C4.32703 12.9176 4.04109 13.3226 3.68192 13.6817C3.48666 13.877 3.17008 13.877 2.97482 13.6817C2.77955 13.4865 2.77955 13.1699 2.97482 12.9746Z" fill="currentColor"/>
</svg>
