<svg width="16" height="16" viewBox="0 0 16 16" fill="none" xmlns="http://www.w3.org/2000/svg">
<g clip-path="url(#clip0_105_13229)">
<path d="M14.9981 9.04118C15.0117 8.86257 15.0187 8.6821 15.0187 8.5C15.0187 7.40281 14.7669 6.36441 14.318 5.43944C13.4275 6.28481 12.3675 6.95339 11.1943 7.38896C11.2242 7.75536 11.2394 8.12591 11.2394 8.5C11.2394 9.29271 11.1711 10.0695 11.04 10.8247C12.4749 10.4636 13.8106 9.85281 14.9981 9.04118Z" fill="currentColor"/>
<path d="M9.89634 11.0556C10.0689 10.2308 10.1596 9.37602 10.1596 8.5C10.1596 8.23481 10.1513 7.97157 10.1349 7.71051C9.44985 7.8737 8.73502 7.9601 8 7.9601C7.26499 7.9601 6.55016 7.8737 5.8651 7.71051C5.84872 7.97157 5.84041 8.23481 5.84041 8.5C5.84041 9.37602 5.93112 10.2308 6.10366 11.0556C6.72194 11.1504 7.35523 11.1995 8 11.1995C8.64478 11.1995 9.27807 11.1504 9.89634 11.0556Z" fill="currentColor"/>
<path d="M6.39632 12.185C6.92221 12.2473 7.45737 12.2793 8 12.2793C8.54264 12.2793 9.0778 12.2473 9.60369 12.185C9.23384 13.3769 8.6893 14.4918 8 15.5C7.31071 14.4918 6.76617 13.3769 6.39632 12.185Z" fill="currentColor"/>
<path d="M4.96005 10.8247C4.82895 10.0695 4.76061 9.29271 4.76061 8.5C4.76061 8.12591 4.77583 7.75536 4.80569 7.38896C3.63248 6.95339 2.57251 6.28481 1.68199 5.43944C1.23308 6.36441 0.981323 7.4028 0.981323 8.5C0.981323 8.6821 0.98826 8.86257 1.00188 9.04118C2.18944 9.85281 3.52513 10.4636 4.96005 10.8247Z" fill="currentColor"/>
<path d="M14.7351 10.4815C14.0039 12.9707 11.9303 14.8856 9.35161 15.3887C9.9753 14.3398 10.4609 13.1992 10.7833 11.992C12.1941 11.6962 13.5239 11.1802 14.7351 10.4815Z" fill="currentColor"/>
<path d="M1.26491 10.4815C2.47607 11.1802 3.80587 11.6962 5.21669 11.992C5.53912 13.1992 6.02471 14.3398 6.6484 15.3887C4.06974 14.8856 1.99607 12.9707 1.26491 10.4815Z" fill="currentColor"/>
<path d="M9.35161 1.61135C11.1668 1.96544 12.7318 3.01915 13.7544 4.48032C12.9923 5.24975 12.0771 5.86715 11.0582 6.28299C10.7802 4.60042 10.1909 3.02283 9.35161 1.61135Z" fill="currentColor"/>
<path d="M8 1.5C9.02845 3.00423 9.73466 4.74622 10.0192 6.62656C9.37373 6.79222 8.69715 6.8803 8 6.8803C7.30286 6.8803 6.62628 6.79222 5.98081 6.62656C6.26534 4.74622 6.97155 3.00423 8 1.5Z" fill="currentColor"/>
<path d="M6.6484 1.61134C5.80908 3.02283 5.21985 4.60041 4.94181 6.28299C3.9229 5.86715 3.00766 5.24975 2.24565 4.48032C3.26825 3.01915 4.83321 1.96544 6.6484 1.61134Z" fill="currentColor"/>
</g>
<defs>
<clipPath id="clip0_105_13229">
<rect width="16" height="16" fill="white"/>
</clipPath>
</defs>
</svg>
