<svg width="16" height="16" viewBox="0 0 16 16" fill="none" xmlns="http://www.w3.org/2000/svg">
<path d="M12.0001 14.6663C12.3537 14.6663 12.6928 14.5259 12.9429 14.2758C13.1929 14.0258 13.3334 13.6866 13.3334 13.333V2.66634C13.3334 2.31272 13.1929 1.97358 12.9429 1.72353C12.6928 1.47348 12.3537 1.33301 12.0001 1.33301H8.00008V5.99967L6.33341 4.99967L4.66675 5.99967V1.33301H4.00008C3.64646 1.33301 3.30732 1.47348 3.05727 1.72353C2.80722 1.97358 2.66675 2.31272 2.66675 2.66634V13.333C2.66675 13.6866 2.80722 14.0258 3.05727 14.2758C3.30732 14.5259 3.64646 14.6663 4.00008 14.6663H12.0001Z" fill="currentColor"/>
</svg>
