<svg width="16" height="17" viewBox="0 0 16 17" fill="none" xmlns="http://www.w3.org/2000/svg">
<path d="M14.816 0.5H1.18044C0.528889 0.5 0 1.01556 0 1.65289V15.3444C0 15.9809 0.528 16.5 1.18133 16.5H14.816C15.4684 16.5 16 15.9809 16 15.3471V1.65289C16 1.01556 15.4684 0.5 14.816 0.5ZM4.74667 14.1347H2.37156V6.49644H4.74667V14.1347ZM3.55911 5.45644C3.37841 5.45668 3.19944 5.42132 3.0324 5.35238C2.86537 5.28345 2.71355 5.18229 2.58561 5.05468C2.45767 4.92707 2.35612 4.77551 2.28676 4.60866C2.21739 4.4418 2.18157 4.26292 2.18133 4.08222C2.1811 3.90152 2.21646 3.72255 2.28539 3.55551C2.35433 3.38848 2.45549 3.23666 2.5831 3.10872C2.71071 2.98078 2.86226 2.87923 3.02912 2.80987C3.19597 2.7405 3.37486 2.70468 3.55556 2.70444C3.92049 2.70386 4.27072 2.84826 4.52918 3.10589C4.78765 3.36353 4.93319 3.71328 4.93378 4.07822C4.93437 4.44316 4.78996 4.79339 4.53233 5.05185C4.27469 5.31032 3.92405 5.45586 3.55911 5.45644ZM13.6347 14.1347H11.2622V10.4218C11.2622 9.53733 11.2471 8.39689 10.0284 8.39689C8.79378 8.39689 8.60622 9.36222 8.60622 10.3596V14.1347H6.23733V6.49644H8.51289V7.54089H8.544C8.85956 6.94089 9.63467 6.30622 10.7876 6.30622C13.1911 6.30622 13.6347 7.88756 13.6347 9.94355V14.1347Z" fill="white"/>
</svg>
