<svg width="24" height="24" viewBox="0 0 24 24" fill="none" xmlns="http://www.w3.org/2000/svg">
<path d="M18.816 4H5.18044C4.52889 4 4 4.51556 4 5.15289V18.8444C4 19.4809 4.528 20 5.18133 20H18.816C19.4684 20 20 19.4809 20 18.8471V5.15289C20 4.51556 19.4684 4 18.816 4ZM8.74667 17.6347H6.37156V9.99644H8.74667V17.6347ZM7.55911 8.95644C7.37841 8.95668 7.19944 8.92132 7.0324 8.85238C6.86537 8.78345 6.71355 8.68229 6.58561 8.55468C6.45767 8.42707 6.35612 8.27551 6.28676 8.10866C6.21739 7.9418 6.18157 7.76292 6.18133 7.58222C6.1811 7.40152 6.21646 7.22255 6.28539 7.05551C6.35433 6.88848 6.45549 6.73666 6.5831 6.60872C6.71071 6.48078 6.86226 6.37923 7.02912 6.30987C7.19597 6.2405 7.37486 6.20468 7.55556 6.20444C7.92049 6.20386 8.27072 6.34826 8.52918 6.60589C8.78765 6.86353 8.93319 7.21328 8.93378 7.57822C8.93437 7.94316 8.78996 8.29339 8.53233 8.55185C8.27469 8.81032 7.92405 8.95586 7.55911 8.95644ZM17.6347 17.6347H15.2622V13.9218C15.2622 13.0373 15.2471 11.8969 14.0284 11.8969C12.7938 11.8969 12.6062 12.8622 12.6062 13.8596V17.6347H10.2373V9.99644H12.5129V11.0409H12.544C12.8596 10.4409 13.6347 9.80622 14.7876 9.80622C17.1911 9.80622 17.6347 11.3876 17.6347 13.4436V17.6347Z" fill="#333333"/>
<path d="M18.816 4H5.18044C4.52889 4 4 4.51556 4 5.15289V18.8444C4 19.4809 4.528 20 5.18133 20H18.816C19.4684 20 20 19.4809 20 18.8471V5.15289C20 4.51556 19.4684 4 18.816 4ZM8.74667 17.6347H6.37156V9.99644H8.74667V17.6347ZM7.55911 8.95644C7.37841 8.95668 7.19944 8.92132 7.0324 8.85238C6.86537 8.78345 6.71355 8.68229 6.58561 8.55468C6.45767 8.42707 6.35612 8.27551 6.28676 8.10866C6.21739 7.9418 6.18157 7.76292 6.18133 7.58222C6.1811 7.40152 6.21646 7.22255 6.28539 7.05551C6.35433 6.88848 6.45549 6.73666 6.5831 6.60872C6.71071 6.48078 6.86226 6.37923 7.02912 6.30987C7.19597 6.2405 7.37486 6.20468 7.55556 6.20444C7.92049 6.20386 8.27072 6.34826 8.52918 6.60589C8.78765 6.86353 8.93319 7.21328 8.93378 7.57822C8.93437 7.94316 8.78996 8.29339 8.53233 8.55185C8.27469 8.81032 7.92405 8.95586 7.55911 8.95644ZM17.6347 17.6347H15.2622V13.9218C15.2622 13.0373 15.2471 11.8969 14.0284 11.8969C12.7938 11.8969 12.6062 12.8622 12.6062 13.8596V17.6347H10.2373V9.99644H12.5129V11.0409H12.544C12.8596 10.4409 13.6347 9.80622 14.7876 9.80622C17.1911 9.80622 17.6347 11.3876 17.6347 13.4436V17.6347Z" fill="url(#paint0_linear_105_12543)"/>
<defs>
<linearGradient id="paint0_linear_105_12543" x1="12" y1="4" x2="12" y2="20" gradientUnits="userSpaceOnUse">
<stop stop-color="#04D9D9"/>
<stop offset="1" stop-color="#17A0BF"/>
</linearGradient>
</defs>
</svg>
