<svg width="24" height="24" viewBox="0 0 24 24" fill="none" xmlns="http://www.w3.org/2000/svg">
<path d="M4 9.74788V16.2857C4 17.5481 5.02335 18.5714 6.28571 18.5714H17.7143C18.9767 18.5714 20 17.5481 20 16.2857V9.74788L13.1979 13.9338C12.4633 14.3859 11.5367 14.3859 10.8021 13.9338L4 9.74788Z" fill="white"/>
<path d="M4 9.74788V16.2857C4 17.5481 5.02335 18.5714 6.28571 18.5714H17.7143C18.9767 18.5714 20 17.5481 20 16.2857V9.74788L13.1979 13.9338C12.4633 14.3859 11.5367 14.3859 10.8021 13.9338L4 9.74788Z" fill="url(#paint0_linear_105_12549)"/>
<path d="M20 8.40596V8.28571C20 7.02335 18.9767 6 17.7143 6H6.28571C5.02335 6 4 7.02335 4 8.28571V8.40596L11.401 12.9604C11.7684 13.1865 12.2316 13.1865 12.599 12.9604L20 8.40596Z" fill="white"/>
<path d="M20 8.40596V8.28571C20 7.02335 18.9767 6 17.7143 6H6.28571C5.02335 6 4 7.02335 4 8.28571V8.40596L11.401 12.9604C11.7684 13.1865 12.2316 13.1865 12.599 12.9604L20 8.40596Z" fill="url(#paint1_linear_105_12549)"/>
<defs>
<linearGradient id="paint0_linear_105_12549" x1="12" y1="6" x2="12" y2="18.5714" gradientUnits="userSpaceOnUse">
<stop stop-color="#04D9D9"/>
<stop offset="1" stop-color="#17A0BF"/>
</linearGradient>
<linearGradient id="paint1_linear_105_12549" x1="12" y1="6" x2="12" y2="18.5714" gradientUnits="userSpaceOnUse">
<stop stop-color="#04D9D9"/>
<stop offset="1" stop-color="#17A0BF"/>
</linearGradient>
</defs>
</svg>
