<svg width="46" height="46" viewBox="0 0 46 46" fill="none" xmlns="http://www.w3.org/2000/svg">
<g clip-path="url(#clip0_290_53)">
<rect width="46" height="46" rx="8" fill="white"/>
<path d="M20.4325 7.66511C20.5442 5.57407 23.0374 5.31951 23.6887 7.66511C24.2096 9.54159 23.3718 12.5563 22.8385 14.709C23.3719 15.9747 25.1143 18.3203 26.1527 19.3567C29.62 18.8112 31.5737 18.8721 32.8586 19.5022C34.6011 20.3568 34.2314 22.4593 32.5418 22.6296C31.0985 22.7751 28.9688 22.6296 25.9415 20.0295C25.1553 20.1386 22.8121 20.6077 20.0101 21.6114C18.9364 23.3933 17.4403 25.8305 16.1731 26.8845C14.0962 28.6118 12.5298 28.0482 12.0897 27.1026C11.4913 25.4298 13.9202 23.866 18.338 21.6114C19.0361 20.181 20.6472 16.6038 21.5061 13.7382C21.1306 12.8108 20.2917 10.3016 20.4325 7.66511ZM17.7396 22.5932C11.7201 25.2767 12.0018 27.0845 13.1282 27.2663C14.2547 27.4481 15.6451 25.9753 17.7396 22.5932ZM32.4714 20.9932C32.401 19.284 29.8665 19.284 26.5575 19.8658C30.4121 22.7023 32.4714 22.1933 32.4714 20.9932ZM22.5446 15.3928C21.6153 18.2293 20.7141 20.2235 20.3797 20.8659C22.886 20.0659 24.8737 19.6355 25.5543 19.5204C24.1603 17.8912 22.967 16.0898 22.5446 15.3928ZM21.8229 12.829C23.2838 8.01057 22.791 6.48321 21.6822 6.64683C20.5205 6.84684 20.6789 10.2652 21.8229 12.829Z" fill="#FF2116"/>
<rect x="-1.5" y="33.5" width="49" height="13" rx="0.2" fill="url(#paint0_linear_290_53)"/>
<g filter="url(#filter0_d_290_53)">
<path d="M17.9757 40.2624H16.279V39.4423H17.9757C18.2711 39.4423 18.5099 39.3984 18.6919 39.3104C18.874 39.2225 19.0068 39.1016 19.0904 38.9478C19.1769 38.7912 19.2202 38.6126 19.2202 38.4121C19.2202 38.2225 19.1769 38.0453 19.0904 37.8805C19.0068 37.7129 18.874 37.5783 18.6919 37.4766C18.5099 37.375 18.2711 37.3242 17.9757 37.3242H16.6237V42.5H15.5V36.5H17.9757C18.48 36.5 18.9083 36.5824 19.2605 36.7473C19.6156 36.9093 19.8857 37.1346 20.0708 37.4231C20.2558 37.7088 20.3483 38.0357 20.3483 38.4038C20.3483 38.7912 20.2558 39.1236 20.0708 39.4011C19.8857 39.6786 19.6156 39.8915 19.2605 40.0398C18.9083 40.1882 18.48 40.2624 17.9757 40.2624Z" fill="white"/>
<path d="M23.2493 42.5H21.857L21.866 41.6799H23.2493C23.6522 41.6799 23.9895 41.5989 24.2611 41.4368C24.5356 41.2747 24.7416 41.0426 24.8788 40.7404C25.0191 40.4382 25.0893 40.0783 25.0893 39.6607V39.3352C25.0893 39.011 25.049 38.7239 24.9684 38.4739C24.8908 38.2239 24.7744 38.0137 24.6192 37.8434C24.467 37.6731 24.279 37.544 24.0551 37.456C23.8343 37.3681 23.5791 37.3242 23.2896 37.3242H21.8302V36.5H23.2896C23.7223 36.5 24.1178 36.5673 24.4759 36.7019C24.8341 36.8338 25.143 37.0247 25.4026 37.2747C25.6653 37.5247 25.8667 37.8242 26.007 38.1731C26.1473 38.522 26.2174 38.9121 26.2174 39.3434V39.6607C26.2174 40.092 26.1473 40.4821 26.007 40.831C25.8667 41.1799 25.6653 41.4794 25.4026 41.7294C25.14 41.9766 24.8266 42.1676 24.4625 42.3022C24.1014 42.4341 23.697 42.5 23.2493 42.5ZM22.4793 36.5V42.5H21.3556V36.5H22.4793Z" fill="white"/>
<path d="M28.4692 36.5V42.5H27.3456V36.5H28.4692ZM31.1284 39.125V39.9451H28.1827V39.125H31.1284ZM31.5 36.5V37.3242H28.1827V36.5H31.5Z" fill="white"/>
</g>
</g>
<defs>
<filter id="filter0_d_290_53" x="15.34" y="36.5" width="16.32" height="6.32" filterUnits="userSpaceOnUse" color-interpolation-filters="sRGB">
<feFlood flood-opacity="0" result="BackgroundImageFix"/>
<feColorMatrix in="SourceAlpha" type="matrix" values="0 0 0 0 0 0 0 0 0 0 0 0 0 0 0 0 0 0 127 0" result="hardAlpha"/>
<feOffset dy="0.16"/>
<feGaussianBlur stdDeviation="0.08"/>
<feComposite in2="hardAlpha" operator="out"/>
<feColorMatrix type="matrix" values="0 0 0 0 0 0 0 0 0 0 0 0 0 0 0 0 0 0 0.25 0"/>
<feBlend mode="normal" in2="BackgroundImageFix" result="effect1_dropShadow_290_53"/>
<feBlend mode="normal" in="SourceGraphic" in2="effect1_dropShadow_290_53" result="shape"/>
</filter>
<linearGradient id="paint0_linear_290_53" x1="23" y1="50.2632" x2="23" y2="31.3333" gradientUnits="userSpaceOnUse">
<stop stop-color="#D0180E"/>
<stop offset="1" stop-color="#FF2116"/>
</linearGradient>
<clipPath id="clip0_290_53">
<rect width="46" height="46" rx="8" fill="white"/>
</clipPath>
</defs>
</svg>
