<svg width="24" height="24" viewBox="0 0 24 24" fill="none" xmlns="http://www.w3.org/2000/svg">
<path d="M12 9.00058V12.7506M12 2.71484C9.8495 4.75147 6.94563 6.00059 3.75 6.00059C3.69922 6.00059 3.64852 6.00028 3.59789 5.99965C3.2099 7.17976 3 8.44069 3 9.75064C3 15.3422 6.82432 20.0405 12 21.3726C17.1757 20.0405 21 15.3422 21 9.75064C21 8.44069 20.7901 7.17976 20.4021 5.99965C20.3515 6.00028 20.3008 6.00059 20.25 6.00059C17.0544 6.00059 14.1505 4.75147 12 2.71484ZM12 15.7506H12.0075V15.7581H12V15.7506Z" stroke="white" stroke-width="1.5" stroke-linecap="round" stroke-linejoin="round"/>
</svg>
